<svg xmlns="http://www.w3.org/2000/svg" xmlns:xlink="http://www.w3.org/1999/xlink" width="512" zoomAndPan="magnify" viewBox="0 0 384 383.999986" height="512" preserveAspectRatio="xMidYMid meet" version="1.0"><defs><g/><clipPath id="0ff16974dd"><path d="M 4.800781 2.617188 L 379.199219 2.617188 L 379.199219 381.40625 L 4.800781 381.40625 Z M 4.800781 2.617188 " clip-rule="nonzero"/></clipPath><clipPath id="0d752335f4"><path d="M 79.800781 2.617188 L 304.199219 2.617188 C 345.621094 2.617188 379.199219 36.195312 379.199219 77.617188 L 379.199219 306.382812 C 379.199219 347.804688 345.621094 381.382812 304.199219 381.382812 L 79.800781 381.382812 C 38.378906 381.382812 4.800781 347.804688 4.800781 306.382812 L 4.800781 77.617188 C 4.800781 36.195312 38.378906 2.617188 79.800781 2.617188 Z M 79.800781 2.617188 " clip-rule="nonzero"/></clipPath><clipPath id="29bfce0a30"><path d="M 0.800781 0.617188 L 375.199219 0.617188 L 375.199219 379.40625 L 0.800781 379.40625 Z M 0.800781 0.617188 " clip-rule="nonzero"/></clipPath><clipPath id="78ca43d274"><path d="M 75.800781 0.617188 L 300.199219 0.617188 C 341.621094 0.617188 375.199219 34.195312 375.199219 75.617188 L 375.199219 304.382812 C 375.199219 345.804688 341.621094 379.382812 300.199219 379.382812 L 75.800781 379.382812 C 34.378906 379.382812 0.800781 345.804688 0.800781 304.382812 L 0.800781 75.617188 C 0.800781 34.195312 34.378906 0.617188 75.800781 0.617188 Z M 75.800781 0.617188 " clip-rule="nonzero"/></clipPath><clipPath id="829d9aa11d"><rect x="0" width="376" y="0" height="380"/></clipPath><clipPath id="2e1609b176"><path d="M 0.160156 17 L 205.359375 17 L 205.359375 284.558594 L 0.160156 284.558594 Z M 0.160156 17 " clip-rule="nonzero"/></clipPath><clipPath id="1b179023c3"><rect x="0" width="206" y="0" height="268"/></clipPath><clipPath id="586d280539"><path d="M 0.160156 0.398438 L 199 0.398438 L 199 112 L 0.160156 112 Z M 0.160156 0.398438 " clip-rule="nonzero"/></clipPath><clipPath id="ce6fddb066"><rect x="0" width="199" y="0" height="112"/></clipPath><clipPath id="98eb7e0ebb"><rect x="0" width="206" y="0" height="285"/></clipPath></defs><g clip-path="url(#0ff16974dd)"><g clip-path="url(#0d752335f4)"><g transform="matrix(1, 0, 0, 1, 4, 2)"><g clip-path="url(#829d9aa11d)"><g clip-path="url(#29bfce0a30)"><g clip-path="url(#78ca43d274)"><path fill="#8c52ff" d="M 0.800781 0.617188 L 375.199219 0.617188 L 375.199219 379.40625 L 0.800781 379.40625 Z M 0.800781 0.617188 " fill-opacity="1" fill-rule="nonzero"/></g></g></g></g></g></g><g transform="matrix(1, 0, 0, 1, 86, 50)"><g clip-path="url(#98eb7e0ebb)"><g clip-path="url(#2e1609b176)"><g transform="matrix(1, 0, 0, 1, 0, 17)"><g clip-path="url(#1b179023c3)"><g fill="#ddff56" fill-opacity="1"><g transform="translate(0.258958, 224.007575)"><g><path d="M 131.53125 -101.265625 C 131.53125 -92.546875 129.675781 -84.847656 125.96875 -78.171875 C 122.269531 -71.492188 117.082031 -66.335938 110.40625 -62.703125 C 103.726562 -59.078125 96.035156 -57.265625 87.328125 -57.265625 C 80.359375 -57.265625 74.660156 -58.5 70.234375 -60.96875 C 65.804688 -63.4375 63.59375 -67.578125 63.59375 -73.390625 C 71.863281 -73.390625 77.628906 -75.601562 80.890625 -80.03125 C 84.160156 -84.457031 85.796875 -91.316406 85.796875 -100.609375 C 85.796875 -109.316406 84.378906 -116.175781 81.546875 -121.1875 C 78.722656 -126.195312 73.753906 -128.703125 66.640625 -128.703125 C 63.296875 -128.703125 60.242188 -128.265625 57.484375 -127.390625 L 57.484375 0 L 10.890625 0 L 10.890625 -141.765625 C 31.210938 -143.796875 49.722656 -144.8125 66.421875 -144.8125 C 86.453125 -144.8125 102.3125 -141.617188 114 -135.234375 C 125.6875 -128.847656 131.53125 -117.523438 131.53125 -101.265625 Z M 131.53125 -101.265625 "/></g></g></g><g fill="#ddff56" fill-opacity="1"><g transform="translate(134.808562, 224.007575)"><g><path d="M 57.484375 -17.203125 C 57.484375 0.796875 54.613281 15.09375 48.875 25.6875 C 43.144531 36.289062 33.023438 41.59375 18.515625 41.59375 C 12.410156 41.59375 6.851562 40.648438 1.84375 38.765625 C -3.15625 36.878906 -6.671875 33.828125 -8.703125 29.609375 C -2.753906 28.890625 1.628906 26.601562 4.453125 22.75 C 7.285156 18.90625 9.066406 14.332031 9.796875 9.03125 C 10.523438 3.738281 10.890625 -3.046875 10.890625 -11.328125 L 10.890625 -143.71875 L 57.484375 -143.71875 Z M 57.484375 -17.203125 "/></g></g></g></g></g></g><g clip-path="url(#586d280539)"><g><g clip-path="url(#ce6fddb066)"><g fill="#ffffff" fill-opacity="1"><g transform="translate(0.258958, 88.01885)"><g><path d="M 48.59375 -43.9375 C 48.59375 -40.601562 48.019531 -37.601562 46.875 -34.9375 C 45.738281 -32.28125 44.101562 -30.03125 41.96875 -28.1875 C 39.832031 -26.351562 37.242188 -24.9375 34.203125 -23.9375 C 31.160156 -22.945312 27.738281 -22.453125 23.9375 -22.453125 C 22.945312 -22.453125 22 -22.476562 21.09375 -22.53125 C 20.1875 -22.59375 19.265625 -22.679688 18.328125 -22.796875 C 18.328125 -18.296875 18.34375 -14.25 18.375 -10.65625 C 18.40625 -7.0625 18.476562 -3.507812 18.59375 0 L 6.234375 0 C 6.347656 -2.800781 6.445312 -5.269531 6.53125 -7.40625 C 6.625 -9.539062 6.695312 -11.765625 6.75 -14.078125 C 6.8125 -16.390625 6.851562 -18.976562 6.875 -21.84375 C 6.90625 -24.707031 6.921875 -28.269531 6.921875 -32.53125 C 6.921875 -37.445312 6.890625 -42.15625 6.828125 -46.65625 C 6.773438 -51.15625 6.660156 -55.773438 6.484375 -60.515625 C 7.773438 -60.742188 9.179688 -60.972656 10.703125 -61.203125 C 12.222656 -61.441406 13.785156 -61.648438 15.390625 -61.828125 C 16.992188 -62.003906 18.597656 -62.132812 20.203125 -62.21875 C 21.816406 -62.3125 23.382812 -62.359375 24.90625 -62.359375 C 29.757812 -62.359375 33.71875 -61.816406 36.78125 -60.734375 C 39.851562 -59.648438 42.265625 -58.242188 44.015625 -56.515625 C 45.773438 -54.796875 46.976562 -52.835938 47.625 -50.640625 C 48.269531 -48.453125 48.59375 -46.21875 48.59375 -43.9375 Z M 18.328125 -30.4375 C 19.148438 -30.257812 20 -30.140625 20.875 -30.078125 C 21.75 -30.023438 22.65625 -30 23.59375 -30 C 27.976562 -30 31.3125 -31.0625 33.59375 -33.1875 C 35.875 -35.320312 37.015625 -38.46875 37.015625 -42.625 C 37.015625 -46.476562 36.0625 -49.425781 34.15625 -51.46875 C 32.257812 -53.519531 29.554688 -54.546875 26.046875 -54.546875 C 24.878906 -54.546875 23.664062 -54.441406 22.40625 -54.234375 C 21.144531 -54.035156 19.84375 -53.757812 18.5 -53.40625 C 18.382812 -50.601562 18.328125 -47.445312 18.328125 -43.9375 C 18.328125 -40.425781 18.328125 -36.1875 18.328125 -31.21875 Z M 18.328125 -30.4375 "/></g></g></g><g fill="#ffffff" fill-opacity="1"><g transform="translate(50.856569, 88.01885)"><g><path d="M 12.109375 -45.4375 C 13.328125 -43.5 14.285156 -41.8125 14.984375 -40.375 C 15.691406 -38.945312 16.191406 -37.445312 16.484375 -35.875 C 17.066406 -36.75 17.796875 -37.695312 18.671875 -38.71875 C 19.554688 -39.738281 20.550781 -40.703125 21.65625 -41.609375 C 22.769531 -42.515625 24 -43.316406 25.34375 -44.015625 C 26.6875 -44.722656 28.117188 -45.195312 29.640625 -45.4375 L 30.4375 -32.96875 C 27.570312 -32.96875 24.910156 -32.71875 22.453125 -32.21875 C 19.992188 -31.726562 18.238281 -30.898438 17.1875 -29.734375 C 17.25 -28.617188 17.28125 -27.40625 17.28125 -26.09375 C 17.28125 -24.78125 17.28125 -23.300781 17.28125 -21.65625 C 17.28125 -19.789062 17.304688 -17.789062 17.359375 -15.65625 C 17.421875 -13.519531 17.492188 -11.472656 17.578125 -9.515625 C 17.671875 -7.554688 17.773438 -5.726562 17.890625 -4.03125 C 18.003906 -2.332031 18.125 -0.988281 18.25 0 L 5.875 0 C 5.9375 -1.226562 5.992188 -2.660156 6.046875 -4.296875 C 6.109375 -5.929688 6.164062 -7.625 6.21875 -9.375 C 6.28125 -11.132812 6.328125 -12.9375 6.359375 -14.78125 C 6.390625 -16.625 6.40625 -18.390625 6.40625 -20.078125 C 6.40625 -22.773438 6.34375 -24.984375 6.21875 -26.703125 C 6.101562 -28.429688 5.867188 -29.921875 5.515625 -31.171875 C 5.171875 -32.429688 4.707031 -33.585938 4.125 -34.640625 C 3.539062 -35.691406 2.78125 -36.921875 1.84375 -38.328125 Z M 12.109375 -45.4375 "/></g></g></g><g fill="#ffffff" fill-opacity="1"><g transform="translate(82.688358, 88.01885)"><g><path d="M 22.890625 -37.71875 C 20.140625 -37.71875 18.035156 -36.269531 16.578125 -33.375 C 15.117188 -30.476562 14.390625 -26.515625 14.390625 -21.484375 C 14.390625 -16.578125 14.988281 -12.765625 16.1875 -10.046875 C 17.382812 -7.328125 19.472656 -5.96875 22.453125 -5.96875 C 25.203125 -5.96875 27.335938 -7.472656 28.859375 -10.484375 C 30.378906 -13.492188 31.140625 -17.515625 31.140625 -22.546875 C 31.140625 -24.878906 31.019531 -26.976562 30.78125 -28.84375 C 30.550781 -30.71875 30.128906 -32.3125 29.515625 -33.625 C 28.898438 -34.945312 28.050781 -35.957031 26.96875 -36.65625 C 25.882812 -37.363281 24.523438 -37.71875 22.890625 -37.71875 Z M 2.890625 -21.21875 C 2.890625 -24.84375 3.382812 -28.117188 4.375 -31.046875 C 5.375 -33.972656 6.765625 -36.457031 8.546875 -38.5 C 10.328125 -40.550781 12.503906 -42.128906 15.078125 -43.234375 C 17.648438 -44.347656 20.519531 -44.90625 23.6875 -44.90625 C 29.644531 -44.90625 34.273438 -43.003906 37.578125 -39.203125 C 40.878906 -35.398438 42.53125 -30.078125 42.53125 -23.234375 C 42.53125 -19.554688 42.03125 -16.222656 41.03125 -13.234375 C 40.039062 -10.253906 38.640625 -7.695312 36.828125 -5.5625 C 35.015625 -3.4375 32.835938 -1.800781 30.296875 -0.65625 C 27.753906 0.476562 24.9375 1.046875 21.84375 1.046875 C 18.914062 1.046875 16.28125 0.519531 13.9375 -0.53125 C 11.601562 -1.582031 9.617188 -3.070312 7.984375 -5 C 6.347656 -6.925781 5.085938 -9.265625 4.203125 -12.015625 C 3.328125 -14.765625 2.890625 -17.832031 2.890625 -21.21875 Z M 2.890625 -21.21875 "/></g></g></g><g fill="#ffffff" fill-opacity="1"><g transform="translate(128.199909, 88.01885)"><g><path d="M 1.3125 -43.15625 L 8.15625 -43.5 C 8.21875 -44.550781 8.257812 -45.53125 8.28125 -46.4375 C 8.3125 -47.34375 8.382812 -48.234375 8.5 -49.109375 C 8.800781 -52.910156 9.242188 -55.863281 9.828125 -57.96875 C 10.410156 -60.070312 11.285156 -61.769531 12.453125 -63.0625 C 13.742188 -64.519531 15.367188 -65.628906 17.328125 -66.390625 C 19.285156 -67.148438 21.285156 -67.53125 23.328125 -67.53125 C 24.847656 -67.53125 26.28125 -67.3125 27.625 -66.875 C 28.96875 -66.4375 30.375 -65.75 31.84375 -64.8125 L 30.875 -57 C 29.53125 -57.53125 28.242188 -57.925781 27.015625 -58.1875 C 25.785156 -58.445312 24.703125 -58.578125 23.765625 -58.578125 C 22.773438 -58.578125 21.941406 -58.414062 21.265625 -58.09375 C 20.597656 -57.78125 20.039062 -57.242188 19.59375 -56.484375 C 19.15625 -55.722656 18.847656 -54.695312 18.671875 -53.40625 C 18.503906 -52.125 18.421875 -50.519531 18.421875 -48.59375 L 18.421875 -43.859375 L 27.890625 -43.859375 L 27.09375 -36.390625 L 18.421875 -37.015625 L 18.421875 -15.171875 C 18.421875 -13.585938 18.421875 -12.15625 18.421875 -10.875 C 18.421875 -9.59375 18.445312 -8.347656 18.5 -7.140625 C 18.5625 -5.941406 18.609375 -4.757812 18.640625 -3.59375 C 18.671875 -2.425781 18.742188 -1.226562 18.859375 0 L 7.984375 0 C 7.984375 -4.96875 7.984375 -9.410156 7.984375 -13.328125 C 7.984375 -17.242188 7.984375 -20.707031 7.984375 -23.71875 C 7.984375 -26.726562 7.992188 -29.359375 8.015625 -31.609375 C 8.046875 -33.867188 8.0625 -35.875 8.0625 -37.625 L 1.921875 -37.625 Z M 1.3125 -43.15625 "/></g></g></g><g fill="#ffffff" fill-opacity="1"><g transform="translate(157.313289, 88.01885)"><g><path d="M 14.46875 -19.828125 C 14.757812 -15.378906 15.664062 -12.265625 17.1875 -10.484375 C 18.707031 -8.703125 21.019531 -7.8125 24.125 -7.8125 C 26.457031 -7.8125 28.660156 -8.160156 30.734375 -8.859375 C 32.816406 -9.554688 34.53125 -10.195312 35.875 -10.78125 L 35.875 -3.515625 C 34 -1.816406 31.65625 -0.632812 28.84375 0.03125 C 26.039062 0.707031 23.328125 1.046875 20.703125 1.046875 C 18.535156 1.046875 16.398438 0.78125 14.296875 0.25 C 12.191406 -0.269531 10.304688 -1.273438 8.640625 -2.765625 C 6.972656 -4.253906 5.625 -6.328125 4.59375 -8.984375 C 3.570312 -11.648438 3.0625 -15.144531 3.0625 -19.46875 C 3.0625 -23.738281 3.585938 -27.46875 4.640625 -30.65625 C 5.703125 -33.84375 7.148438 -36.488281 8.984375 -38.59375 C 10.828125 -40.695312 12.988281 -42.273438 15.46875 -43.328125 C 17.957031 -44.378906 20.664062 -44.90625 23.59375 -44.90625 C 26.570312 -44.90625 29.007812 -44.390625 30.90625 -43.359375 C 32.8125 -42.335938 34.304688 -41.035156 35.390625 -39.453125 C 36.472656 -37.878906 37.203125 -36.128906 37.578125 -34.203125 C 37.960938 -32.273438 38.15625 -30.40625 38.15625 -28.59375 C 38.15625 -26.71875 38.019531 -25.019531 37.75 -23.5 C 37.488281 -21.976562 37.15625 -20.753906 36.75 -19.828125 Z M 22.015625 -38.5 C 19.734375 -38.5 17.960938 -37.519531 16.703125 -35.5625 C 15.453125 -33.601562 14.707031 -30.519531 14.46875 -26.3125 L 28.9375 -26.3125 C 28.9375 -26.539062 28.953125 -26.832031 28.984375 -27.1875 C 29.015625 -27.539062 29.03125 -27.863281 29.03125 -28.15625 C 29.03125 -29.09375 28.941406 -30.160156 28.765625 -31.359375 C 28.585938 -32.554688 28.234375 -33.679688 27.703125 -34.734375 C 27.179688 -35.785156 26.46875 -36.675781 25.5625 -37.40625 C 24.65625 -38.132812 23.472656 -38.5 22.015625 -38.5 Z M 22.015625 -38.5 "/></g></g></g></g></g></g></g></g></svg>